HIERARCHY
ROOT Hips
{
	OFFSET 0.000000 0.000000 0.000000
	CHANNELS 6 Xposition Yposition Zposition Zrotation Yrotation Xrotation 
	JOINT LHipJoint
	{
		OFFSET 0.000000 0.000000 0.000000
		CHANNELS 3 Zrotation Yrotation Xrotation
		JOINT LeftUpLeg
		{
			OFFSET 1.363060 -1.794630 0.839290
			CHANNELS 3 Zrotation Yrotation Xrotation
			JOINT LeftLeg
			{
				OFFSET 2.448110 -6.726130 0.000000
				CHANNELS 3 Zrotation Yrotation Xrotation
				JOINT LeftFoot
				{
					OFFSET 2.562200 -7.039590 0.000000
					CHANNELS 3 Zrotation Yrotation Xrotation
					JOINT LeftToeBase
					{
						OFFSET 0.157640 -0.433110 2.322550
						CHANNELS 3 Zrotation Yrotation Xrotation
						End Site
						{
							OFFSET 0.000000 0.000000 0.000000
						}
					}
				}
			}
		}
	}
	JOINT RHipJoint
	{
		OFFSET 0.000000 0.000000 0.000000
		CHANNELS 3 Zrotation Yrotation Xrotation
		JOINT RightUpLeg
		{
			OFFSET -1.305520 -1.794630 0.839290
			CHANNELS 3 Zrotation Yrotation Xrotation
			JOINT RightLeg
			{
				OFFSET -2.542530 -6.985550 0.000000
				CHANNELS 3 Zrotation Yrotation Xrotation
				JOINT RightFoot
				{
					OFFSET -2.568260 -7.056230 0.000000
					CHANNELS 3 Zrotation Yrotation Xrotation
					JOINT RightToeBase
					{
						OFFSET -0.164730 -0.452590 2.363150
						CHANNELS 3 Zrotation Yrotation Xrotation
						End Site
						{
							OFFSET 0.000000 0.000000 0.000000
						}
					}
				}
			}
		}
	}
}
MOTION
Frames: 33
Frame Time: 0.008333
-20.613029 16.310268 -0.747926 3.287515 84.303804 18.637692 -9.658983 -0.415922 4.021294 -8.694300 -5.014672 -51.676055 -1.152177 1.785740 42.358439 1.896640 7.503472 -12.313086 -0.461700 0.000000 -15.124100 9.796671 -4.832632 0.380979 3.032196 -5.068671 7.624494 1.550766 -1.587952 19.322737 0.767511 9.059154 8.380631 2.101300 0.000000 -84.011399
-20.423597 16.305059 -0.763032 5.328906 84.228068 20.239590 -9.683965 -0.385637 3.785823 -9.306501 -4.505993 -50.841909 -1.161630 1.831916 43.361591 1.897478 7.495938 -12.956913 -0.588800 -0.000000 -14.939800 9.998718 -4.929325 0.271019 2.250077 -5.703590 6.676488 1.254793 -1.894898 22.358004 0.660338 9.294002 10.675809 2.561300 -0.000000 -85.613500
-20.238949 16.297744 -0.777406 7.850871 84.187286 22.283079 -9.688233 -0.353362 3.519121 -10.008157 -3.935051 -49.932369 -1.187530 1.866514 44.299808 1.878472 7.372854 -13.627893 -0.715200 0.000000 -14.886200 10.246199 -4.996790 0.131704 1.381417 -6.497424 5.566240 0.942748 -2.184704 25.666063 0.502841 9.318641 12.943234 2.988201 -0.000000 -86.218600
-20.058692 16.288107 -0.791338 10.701826 84.167702 24.627790 -9.667151 -0.312125 3.229743 -10.775042 -3.309898 -48.955516 -1.226889 1.889135 45.161497 1.844066 7.149708 -14.321732 -0.836100 -0.000000 -14.954700 10.533336 -5.025302 -0.029059 0.459751 -7.395728 4.317115 0.628902 -2.450704 29.203971 0.297031 9.013684 15.080603 3.296500 -0.000000 -85.723500
-19.882795 16.276193 -0.804935 13.796465 84.158168 27.198794 -9.615330 -0.255617 2.928294 -11.589331 -2.650000 -47.917276 -1.276795 1.899256 45.933562 1.800519 6.852755 -15.034626 -0.948500 -0.000001 -15.126700 10.855399 -5.009070 -0.205330 -0.490623 -8.354105 2.949535 0.327096 -2.693132 32.930040 0.050524 8.282467 16.966380 3.393600 0.000001 -84.085001
-19.710447 16.262291 -0.818850 16.890370 84.140122 29.763278 -9.537978 -0.177951 2.625838 -12.412157 -1.964523 -46.833734 -1.334519 1.900858 46.613373 1.753194 6.505218 -15.768011 -1.050900 -0.000000 -15.378200 11.193152 -4.944349 -0.390987 -1.416023 -9.307777 1.492196 0.046298 -2.916166 36.792218 -0.225913 7.043936 18.470414 3.193300 0.000000 -81.382400
-19.541175 16.246925 -0.833387 19.881820 84.106805 32.229842 -9.440000 -0.078095 2.333075 -13.218925 -1.277328 -45.714297 -1.397643 1.896120 47.196165 1.708035 6.137260 -16.521520 -1.143900 -0.000000 -15.678300 11.532838 -4.834405 -0.582272 -2.284324 -10.218152 -0.038273 -0.210003 -3.128853 40.743154 -0.520837 5.287598 19.472671 2.658900 -0.000000 -77.793899
-19.374275 16.230890 -0.848957 22.673853 84.056786 34.511528 -9.330303 0.041403 2.059010 -13.984037 -0.613121 -44.569265 -1.463872 1.887676 47.682063 1.669981 5.776943 -17.295077 -1.229900 -0.000000 -15.993701 11.859186 -4.686446 -0.775761 -3.061593 -11.051092 -1.628581 -0.444042 -3.340612 44.732392 -0.823808 3.068470 19.880742 1.817900 0.000000 -73.574600
-19.209296 16.215083 -0.865582 25.283801 83.994416 36.635580 -9.212667 0.176357 1.811087 -14.698416 -0.004992 -43.403496 -1.531235 1.876054 48.068248 1.643782 5.453997 -18.084477 -1.312700 -0.000000 -16.290600 12.166686 -4.510136 -0.967888 -3.733890 -11.789744 -3.274717 -0.661458 -3.559511 48.710048 -1.125458 0.515111 19.644996 0.768100 -0.000000 -68.985900
-19.045610 16.200515 -0.883391 27.700222 83.924768 38.598395 -9.093392 0.321485 1.594343 -15.350393 0.521060 -42.223287 -1.597966 1.862432 48.355953 1.632363 5.190517 -18.884035 -1.396901 -0.000000 -16.539601 12.448662 -4.314797 -1.154764 -4.283815 -12.417794 -4.972961 -0.869533 -3.789317 52.623854 -1.417009 -2.201651 18.768848 -0.349401 -0.000000 -64.256600
-18.882644 16.188141 -0.902490 29.918974 83.853881 40.403420 -8.978475 0.471052 1.411029 -15.931853 0.945530 -41.036244 -1.662670 1.847937 48.549756 1.636937 5.000239 -19.686370 -1.486700 -0.000000 -16.717400 12.700292 -4.108649 -1.333022 -4.697866 -12.925729 -6.721485 -1.074495 -4.029618 56.423728 -1.689519 -4.894153 17.302934 -1.382500 -0.000001 -59.533500
-18.720387 16.178858 -0.922762 31.973816 83.786656 42.087900 -8.870149 0.620865 1.261801 -16.444811 1.253664 -39.844148 -1.724482 1.832611 48.649702 1.657637 4.891613 -20.479397 -1.585600 -0.000000 -16.809500 12.921645 -3.897628 -1.499056 -4.976303 -13.312501 -8.518738 -1.279833 -4.276602 60.061701 -1.933612 -7.384165 15.337992 -2.201800 0.000000 -54.891600
-18.558349 16.173516 -0.943841 33.932740 83.723660 43.720541 -8.765822 0.769100 1.145657 -16.902399 1.436561 -38.642452 -1.783335 1.815622 48.649064 1.693779 4.868406 -21.246521 -1.696100 0.000000 -16.809800 13.117544 -3.684481 -1.649606 -5.134396 -13.584466 -10.360759 -1.485465 -4.524480 63.491914 -2.139242 -9.521953 12.988423 -2.723599 0.000000 -50.338400
-18.396317 16.172655 -0.965648 35.785650 83.665707 45.289743 -8.669085 0.912871 1.058559 -17.306080 1.504542 -37.430902 -1.839589 1.797364 48.547965 1.742045 4.919032 -21.974026 -1.817100 -0.000000 -16.723900 13.285712 -3.471312 -1.782541 -5.175678 -13.744766 -12.238133 -1.687909 -4.765792 66.672575 -2.296870 -11.205176 10.376232 -2.922100 0.000000 -45.857800
-18.234459 16.176670 -0.987944 37.549365 83.610264 46.807813 -8.579618 1.051196 0.994914 -17.665554 1.474535 -36.201501 -1.894490 1.777167 48.338169 1.798708 5.028461 -22.646563 -1.945800 0.000000 -16.564100 13.427497 -3.258223 -1.896547 -5.117029 -13.802372 -14.138685 -1.880721 -4.993735 69.566171 -2.397860 -12.369145 7.621844 -2.821800 -0.000000 -41.415400
-18.072446 16.185982 -1.010398 39.234919 83.552026 48.277175 -8.496160 1.184658 0.949109 -17.992351 1.371091 -34.939341 -1.949906 1.753619 48.003450 1.859685 5.178946 -23.248338 -2.077401 0.000000 -16.347300 13.544593 -3.045093 -1.989772 -4.979898 -13.767039 -16.044543 -2.055663 -5.202299 72.138005 -2.435934 -12.987870 4.838681 -2.486500 -0.000000 -36.984001
-17.910236 16.200513 -1.033036 40.790275 83.489104 49.638501 -8.423070 1.311740 0.912762 -18.284382 1.232663 -33.636692 -2.007866 1.726100 47.536300 1.919348 5.342206 -23.771242 -2.204001 0.000000 -16.096000 13.633178 -2.832822 -2.061996 -4.771604 -13.645216 -17.937672 -2.204176 -5.386345 74.361568 -2.409254 -13.077330 2.130447 -2.005000 0.000000 -32.591800
-17.747402 16.220389 -1.055626 42.199230 83.416728 50.865894 -8.359497 1.433377 0.879071 -18.548448 1.093552 -32.274688 -2.070720 1.692426 46.915083 1.973514 5.497542 -24.205079 -2.318700 -0.000000 -15.831000 13.694352 -2.621384 -2.112308 -4.510840 -13.446386 -19.797521 -2.318905 -5.542354 76.214015 -2.320986 -12.685136 -0.404053 -1.471300 0.000000 -28.336400
-17.583762 16.245374 -1.078264 43.387199 83.335286 51.878320 -8.310206 1.548353 0.840705 -18.776946 0.994877 -30.845253 -2.140236 1.651057 46.129439 2.017398 5.619118 -24.548026 -2.413200 0.000000 -15.576000 13.724236 -2.412504 -2.140027 -4.197860 -13.174860 -21.607487 -2.395154 -5.667229 77.682635 -2.180989 -11.897694 -2.677048 -0.968800 0.000001 -24.417300
-17.418897 16.275189 -1.100978 44.301692 83.245775 52.617614 -8.277350 1.656318 0.792212 -18.964179 0.970304 -29.339519 -2.217643 1.599886 45.166303 2.047563 5.688227 -24.798495 -2.481300 0.000000 -15.354200 13.721668 -2.207212 -2.144527 -3.834718 -12.836494 -23.353480 -2.431716 -5.759043 78.762978 -2.004344 -10.826191 -4.616749 -0.554699 -0.000000 -21.106300
-17.252454 16.309639 -1.123845 44.895623 83.149577 53.033388 -8.262695 1.756983 0.729534 -19.103073 1.045206 -27.748854 -2.303412 1.536719 44.011437 2.061748 5.693342 -24.954280 -2.518300 -0.000000 -15.189300 13.685777 -2.006220 -2.126627 -3.421042 -12.437171 -25.022249 -2.429966 -5.816933 79.458398 -1.809310 -9.596630 -6.192749 -0.252200 -0.000000 -18.574700
-17.083860 16.348180 -1.147033 45.119972 83.052908 53.076416 -8.269754 1.849652 0.651659 -19.180392 1.238719 -26.078565 -2.396528 1.460181 42.666010 2.058014 5.624108 -25.016671 -2.520800 0.000000 -15.108300 13.614569 -1.811413 -2.086443 -2.946290 -11.981768 -26.608281 -2.393217 -5.840619 79.783830 -1.615522 -8.341443 -7.415073 -0.056000 -0.000000 -16.930500
-16.912740 16.390408 -1.170719 44.945439 82.960875 52.721169 -8.301134 1.933964 0.559324 -19.184670 1.556788 -24.335658 -2.495022 1.369261 41.131807 2.035639 5.478880 -24.983065 -2.487500 -0.000000 -15.139000 13.506611 -1.623781 -2.026168 -2.401527 -11.476164 -28.107541 -2.324413 -5.830921 79.757834 -1.440300 -7.179252 -8.343997 0.058901 -0.000000 -16.035199
-16.738593 16.435757 -1.195054 44.365656 82.879294 51.965426 -8.358759 2.010226 0.456052 -19.106156 1.994234 -22.533390 -2.595694 1.263873 39.420554 1.994614 5.261023 -24.849362 -2.418900 -0.000000 -15.308900 13.361275 -1.444371 -1.947958 -1.779076 -10.927340 -29.518123 -2.225787 -5.789375 79.401423 -1.297226 -6.206134 -9.067689 0.122400 0.000000 -15.625600
-16.561075 16.483732 -1.220220 43.387351 82.814365 50.823862 -8.444644 2.079051 0.347386 -18.936375 2.534763 -20.692792 -2.694421 1.145011 37.553119 1.935527 4.978226 -24.609795 -2.317000 -0.000000 -15.642100 13.177786 -1.273818 -1.853972 -1.071525 -10.341673 -30.841064 -2.098616 -5.717519 78.732193 -1.195341 -5.487644 -9.678739 0.161100 -0.000000 -15.405200
-16.379998 16.533729 -1.246328 42.035635 82.772338 49.330147 -8.559550 2.141925 0.240429 -18.671563 3.152649 -18.839015 -2.786503 1.014809 35.559065 1.859638 4.642162 -24.257828 -2.185300 -0.000000 -16.156000 12.956495 -1.112325 -1.745840 -0.276112 -9.726416 -32.077762 -1.943727 -5.616840 77.761242 -1.139309 -5.055440 -10.254168 0.194400 0.000000 -15.128500
-16.195169 16.585263 -1.273409 40.346726 82.759171 47.531867 -8.703319 2.200885 0.142975 -18.312058 3.814567 -17.002419 -2.867271 0.876546 33.475201 1.768868 4.267394 -23.787904 -2.029200 0.000000 -16.857399 12.698351 -0.959327 -1.624918 0.605760 -9.089635 -33.230954 -1.761840 -5.488384 76.490787 -1.130007 -4.907560 -10.844387 0.235600 -0.000000 -14.609800
-16.006689 16.637759 -1.301323 38.375760 82.781738 45.490593 -8.872933 2.258941 0.062387 -17.864411 4.484925 -15.209442 -2.932531 0.734405 31.343217 1.665557 3.868731 -23.196624 -1.854700 -0.000000 -17.741200 12.406919 -0.814687 -1.492050 1.564917 -8.442175 -34.298133 -1.554269 -5.333393 74.914809 -1.164995 -5.011888 -11.465335 0.292300 -0.000000 -13.766300
-15.814737 16.690731 -1.329874 36.181277 82.845903 43.271287 -9.064025 2.319342 0.004567 -17.340005 5.128653 -13.485010 -2.979292 0.593243 29.205529 1.552458 3.460766 -22.483529 -1.668300 0.000000 -18.791900 12.086603 -0.678094 -1.348258 2.587330 -7.796149 -35.275769 -1.323088 -5.152804 73.019591 -1.238760 -5.312391 -12.099782 0.366300 0.000000 -12.594800
-15.619623 16.743673 -1.358695 33.822497 82.957438 40.934660 -9.270648 2.385200 -0.027207 -16.753032 5.716998 -11.846479 -3.006051 0.458048 27.101679 1.432261 3.054441 -21.651917 -1.476100 0.000000 -19.986300 11.743355 -0.550193 -1.195095 3.653791 -7.165573 -36.154585 -1.071479 -4.947770 70.787568 -1.342652 -5.737461 -12.699823 0.452600 0.000000 -11.187000
-15.421754 16.796120 -1.387346 31.359476 83.119178 38.539424 -9.486159 2.459357 -0.031885 -16.120241 6.227987 -10.304031 -3.013044 0.333433 25.063331 1.307526 2.657501 -20.707048 -1.283400 0.000000 -21.297600 11.383891 -0.432177 -1.034479 4.742500 -6.564733 -36.922886 -0.803616 -4.719283 68.200349 -1.464875 -6.208570 -13.195070 0.537900 0.000000 -9.735101
-15.221596 16.847463 -1.415193 28.865801 83.333231 36.152657 -9.702128 2.543963 -0.011366 -15.460753 6.649646 -8.857299 -3.001988 0.222956 23.113807 1.180480 2.272519 -19.657156 -1.094500 -0.000000 -22.698700 11.017103 -0.326616 -0.868682 5.828402 -6.009566 -37.566710 -0.523662 -4.469312 65.245506 -1.591034 -6.648753 -13.512146 0.603200 0.000001 -8.462801
-15.019659 16.897305 -1.442013 26.305299 83.596572 33.724240 -9.917885 2.640647 0.026683 -14.774504 6.998159 -7.494602 -2.975811 0.130122 21.264620 1.050505 1.885071 -18.508605 -0.909401 -0.000000 -24.192600 10.647000 -0.237137 -0.702183 6.901886 -5.507870 -38.057470 -0.234323 -4.197505 61.909863 -1.706090 -6.994119 -13.586915 0.628300 0.000000 -7.567699
